<svg width="15" height="15" viewBox="0 0 15 15" fill="none" xmlns="http://www.w3.org/2000/svg">
<path d="M14.2997 7.40928V13.9102C14.2161 14.089 14.0825 14.2915 13.8564 14.2915H11.4879C11.2624 14.2915 11.0364 14.0684 11.0362 13.8292L11.0309 8.66251C11.0309 8.40685 10.9852 8.14562 10.8548 7.93842C10.6184 7.56357 10.1973 7.36695 9.76093 7.3508C9.01743 7.32323 8.44789 7.98076 8.4468 8.7196L8.4394 13.9069C8.43913 14.118 8.19696 14.2917 8.00574 14.2917H5.38707C5.19969 14.2923 4.94684 14.1255 4.94684 13.9091L4.94629 4.99445C4.94629 4.75383 5.19969 4.57253 5.41145 4.57281L7.76604 4.57476C7.99095 4.57476 8.18956 4.80452 8.20216 5.01172L8.22326 5.35705C8.75115 4.8009 9.40972 4.44693 10.1491 4.36645C10.5896 4.31855 10.9422 4.30824 11.423 4.3606C12.9037 4.52157 14.2994 5.81518 14.2994 7.40901L14.2997 7.40928ZM9.08838 7.01911C9.85763 6.68241 10.7559 6.95172 11.2287 7.6357C11.4287 7.92506 11.4712 8.25312 11.4997 8.60319L11.5227 13.8208H13.8334V7.72008C13.8433 6.23571 12.7809 4.94711 11.3213 4.82652C10.9353 4.79477 10.5661 4.79032 10.1886 4.84184C9.48013 4.9382 8.85279 5.31222 8.432 5.88731L7.77042 6.55486L7.76412 5.04486L5.43419 5.04904V13.8202L7.99999 13.8214L8.00136 8.66418C8.03998 7.94037 8.42214 7.31042 9.08866 7.01883L9.08838 7.01911Z" fill="#042D76" stroke="#032D76" stroke-width="0.6" stroke-miterlimit="10" stroke-linejoin="round"/>
<path d="M3.10792 14.2915L1.25795 14.2948C0.84922 14.2956 0.53418 13.9684 0.53418 13.5479L0.535275 5.27463C0.535275 4.86858 0.847302 4.57143 1.22946 4.57115L3.06108 4.57031C3.48487 4.57031 3.80156 4.89392 3.80128 5.32949L3.79663 13.6328C3.79663 13.9951 3.45036 14.2909 3.10792 14.2917V14.2915ZM3.11532 13.8214C3.249 13.7918 3.33448 13.7169 3.33448 13.5749V5.30443C3.3342 5.14095 3.20599 5.04487 3.06299 5.04487L1.23056 5.0457C1.10098 5.0457 1.02044 5.139 1.00126 5.27491V13.547C1.00126 13.7077 1.11084 13.8202 1.26042 13.8205L3.11504 13.8211L3.11532 13.8214Z" fill="#042D76" stroke="#032D76" stroke-width="0.6" stroke-miterlimit="10" stroke-linejoin="round"/>
<path d="M2.72374 4.01356C1.62192 4.37393 0.494897 3.61169 0.320666 2.46819C0.213279 1.76332 0.528867 1.06903 1.0743 0.664933C1.6452 0.241899 2.42596 0.17506 3.05028 0.524292C3.46011 0.753494 3.78392 1.12473 3.93486 1.57199C4.27456 2.57903 3.72831 3.68493 2.72374 4.01328V4.01356ZM3.55407 2.37907C3.60969 1.87778 3.42614 1.40322 3.0533 1.09493C2.67689 0.78385 2.17639 0.697516 1.70383 0.858765C1.04416 1.08407 0.675429 1.76276 0.792679 2.4629C0.898422 3.09341 1.40221 3.53287 2.02243 3.61085C2.79579 3.70833 3.47134 3.12739 3.55407 2.37907Z" fill="#042D76" stroke="#032D76" stroke-width="0.6" stroke-miterlimit="10" stroke-linejoin="round"/>
</svg>
