<svg width="16" height="16" viewBox="0 0 16 16" fill="none" xmlns="http://www.w3.org/2000/svg">
<mask id="mask0_1559_281" style="mask-type:luminance" maskUnits="userSpaceOnUse" x="0" y="0" width="16" height="16">
<path d="M15.0882 0H0V15.0882H15.0882V0Z" fill="white"/>
</mask>
<g mask="url(#mask0_1559_281)">
<path d="M9.46201 3.14312C10.0761 3.26292 10.6404 3.56324 11.0827 4.00563C11.5252 4.44801 11.8255 5.01235 11.9453 5.6264M9.46201 0.628418C10.7378 0.770144 11.9274 1.34145 12.8357 2.24853C13.7439 3.1556 14.3167 4.34453 14.46 5.62011M13.8313 10.6369V12.523C13.832 12.6981 13.7962 12.8713 13.726 13.0318C13.6559 13.1922 13.553 13.3362 13.424 13.4546C13.2949 13.573 13.1426 13.6631 12.9768 13.7191C12.8109 13.7752 12.6352 13.7961 12.4608 13.7803C10.5262 13.5701 8.66795 12.9091 7.03532 11.8503C5.51633 10.8851 4.22849 9.5972 3.26326 8.07823C2.20078 6.43814 1.53958 4.57085 1.33323 2.62761C1.31752 2.45376 1.33818 2.27854 1.3939 2.11312C1.44961 1.94769 1.53916 1.79568 1.65684 1.66676C1.77453 1.53783 1.91777 1.43483 2.07745 1.3643C2.23712 1.29377 2.40974 1.25726 2.58429 1.25709H4.47032C4.77542 1.25409 5.0712 1.36213 5.30254 1.56108C5.53388 1.76003 5.68498 2.03631 5.72768 2.33842C5.80728 2.94199 5.95491 3.53462 6.16775 4.105C6.25234 4.33001 6.27064 4.57457 6.2205 4.80967C6.17036 5.04477 6.05387 5.26057 5.88484 5.43151L5.08643 6.22993C5.98138 7.80385 7.28456 9.107 8.85848 10.002L9.6569 9.20356C9.82782 9.03458 10.0437 8.91806 10.2787 8.86794C10.5138 8.81781 10.7584 8.83608 10.9834 8.92066C11.5538 9.13349 12.1465 9.2811 12.75 9.36073C13.0554 9.40382 13.3343 9.55764 13.5337 9.79293C13.733 10.0282 13.8389 10.3286 13.8313 10.6369Z" stroke="#002A74" stroke-width="1.25735" stroke-linecap="round" stroke-linejoin="round"/>
</g>
</svg>
